<svg xmlns="http://www.w3.org/2000/svg" xmlns:xlink="http://www.w3.org/1999/xlink" id="Camada_1" x="0px" y="0px" viewBox="0 0 350 100" style="enable-background:new 0 0 350 100;" xml:space="preserve"><style type="text/css">	.st0{fill:#FFFFFF;}</style><g>	<path class="st0" d="M170.32,77.71l-7.14,16.83h4.52l1.2-3.06h7.2l1.2,3.06h4.49l-7.15-16.83H170.32z M170.32,87.91l2.17-5.53  l2.19,5.53H170.32z M159.68,86.69c0.8-0.95,1.2-2.11,1.2-3.48c0-1.64-0.56-2.97-1.68-3.98c-1.12-1.01-2.61-1.52-4.47-1.52h-8.65  v16.83h4.21v-5.78h1.23l5.15,5.78h5.08l-5.36-5.98C157.78,88.26,158.88,87.63,159.68,86.69z M154.27,85.29h-3.98v-4.05h3.98  c0.75,0,1.35,0.18,1.8,0.55c0.45,0.37,0.68,0.85,0.68,1.46c0,0.62-0.22,1.11-0.68,1.48C155.62,85.11,155.01,85.29,154.27,85.29z   M134.02,90.97h9.11v3.57h-13.32V77.71h13.24v3.57h-9.03v3.17h8.29v3.37h-8.29V90.97z M122.74,87.43l4.13,0.8  c-0.39,2.08-1.37,3.71-2.93,4.9c-1.57,1.19-3.46,1.78-5.69,1.78c-2.53,0-4.68-0.85-6.44-2.54c-1.76-1.69-2.64-3.78-2.64-6.26  c0-2.46,0.88-4.54,2.64-6.24c1.76-1.7,3.91-2.55,6.44-2.55c2.14,0,4.01,0.59,5.6,1.76c1.59,1.17,2.59,2.74,3,4.7l-4.13,0.95  c-0.25-1.19-0.78-2.09-1.57-2.7c-0.79-0.61-1.76-0.92-2.9-0.92c-1.36,0-2.51,0.48-3.46,1.43c-0.94,0.96-1.42,2.14-1.42,3.57  c0,1.42,0.47,2.62,1.42,3.58c0.94,0.96,2.1,1.44,3.46,1.44c1.12,0,2.08-0.31,2.87-0.94C121.91,89.58,122.45,88.65,122.74,87.43z   M226.92,87.43l4.13,0.8c-0.39,2.08-1.37,3.71-2.93,4.9c-1.56,1.19-3.46,1.78-5.69,1.78c-2.53,0-4.68-0.85-6.44-2.54  c-1.76-1.69-2.64-3.78-2.64-6.26c0-2.46,0.88-4.54,2.64-6.24c1.76-1.7,3.91-2.55,6.44-2.55c2.14,0,4.01,0.59,5.6,1.76  c1.59,1.17,2.59,2.74,3,4.7l-4.13,0.95c-0.25-1.19-0.78-2.09-1.57-2.7c-0.79-0.61-1.76-0.92-2.9-0.92c-1.36,0-2.51,0.48-3.46,1.43  c-0.94,0.96-1.42,2.14-1.42,3.57c0,1.42,0.47,2.62,1.42,3.58c0.94,0.96,2.1,1.44,3.46,1.44c1.12,0,2.08-0.31,2.87-0.94  C226.1,89.58,226.64,88.65,226.92,87.43z M246.99,89.46c0,1.73-0.67,3.07-2.01,4.02c-1.34,0.96-3.02,1.43-5.03,1.43  c-1.99,0-3.68-0.45-5.07-1.34c-1.39-0.9-2.19-2.15-2.41-3.76l4.34-0.83c0.41,1.66,1.53,2.49,3.37,2.49c0.78,0,1.4-0.16,1.85-0.48  c0.45-0.32,0.68-0.74,0.68-1.26c0-0.4-0.12-0.72-0.35-0.95c-0.23-0.23-0.64-0.41-1.24-0.53l-3.57-0.75  c-3.06-0.69-4.59-2.31-4.59-4.88c0-1.62,0.62-2.91,1.86-3.87c1.24-0.96,2.88-1.43,4.9-1.43c1.87,0,3.44,0.43,4.69,1.29  c1.26,0.86,2.05,2.06,2.37,3.58l-4.13,0.83c-0.15-0.75-0.51-1.34-1.07-1.75c-0.56-0.41-1.2-0.62-1.92-0.62  c-0.68,0-1.23,0.16-1.66,0.49c-0.43,0.33-0.64,0.73-0.64,1.22c0,0.74,0.46,1.21,1.38,1.41l3.55,0.78  C245.42,85.25,246.99,86.89,246.99,89.46z M199.25,77.71h4.11v16.83h-4.08v-8.39l-4.47,8.39h-2.6l-4.49-8.44v8.44h-4.08V77.71h4.13  l5.74,10.43L199.25,77.71z M206.67,77.71h4.21v16.83h-4.21V77.71z M235.95,45.74c0-5.34-3.92-8.73-11.66-10.08l-6.68-1.17  c-4.42-0.77-8.08-2.4-10.89-4.83c-2.82-2.44-4.25-5.74-4.25-9.81c0-4.46,1.84-8.07,5.47-10.72c3.7-2.69,8.09-4.06,13.04-4.06  c7.13,0,13.26,2.65,18.19,7.88l0.14,0.15l-3.56,3.91l-0.16-0.19c-3.97-4.52-9.04-6.81-15.07-6.81c-7.37,0-12.73,4.04-12.73,9.62  c0,5.27,3.98,8.58,11.82,9.84l5.36,0.93c10.67,1.66,16.31,6.93,16.31,15.25c0,4.4-1.74,7.91-5.33,10.73  c-3.62,2.85-8.42,4.29-14.28,4.29c-8.25,0-15.85-3.54-20.33-9.48l-0.11-0.15l3.63-3.77l0.16,0.21c4.21,5.48,10.05,8.26,17.36,8.26  C230.62,55.75,235.95,51.82,235.95,45.74z M172.05,35.17v-5.01h21.31v5.01H172.05z M194.22,59.83h-35.09V5.94h35.09v5.01l-29.76,0  v43.86h29.76V59.83z M291.84,59.83h-5.75l-0.05-0.14l-18.41-47.23l-18.3,47.37h-5.83l21.07-53.89h6.28L291.84,59.83z M272.57,42.23  l1.99,5.09h-13.78l1.99-5.09H272.57z M145.35,59.83V11.81L88.62,35.46l-24.99-22.3v46.67h-5.47V5.94h5.65L63.87,6l25.83,23.09  l55.41-23.11h5.71v53.85H145.35z"></path></g></svg>